<svg width="452" height="240" xmlns="http://www.w3.org/2000/svg" xmlns:xlink="http://www.w3.org/1999/xlink" overflow="hidden"><defs><clipPath id="clip0"><rect x="414" y="240" width="452" height="240"/></clipPath><clipPath id="clip1"><rect x="429" y="255" width="422" height="210"/></clipPath><clipPath id="clip2"><rect x="429" y="255" width="422" height="210"/></clipPath></defs><g clip-path="url(#clip0)" transform="translate(-414 -240)"><g clip-path="url(#clip1)"><path d="M435 353 445 367 455 304 466 336 476 321 486 355 496 348 507 366 517 355 527 387 537 369 548 345 558 373 568 363 578 367 589 265 599 367 609 400 619 376 630 352 640 370 650 383 661 380 671 327 681 377 691 380 702 312 712 383 722 364 732 415 743 386 753 350 763 360 773 348 784 365 794 368 804 345 814 327 825 359 835 349 845 324 845 465 835 465 825 465 814 465 804 465 794 465 784 465 773 465 763 465 753 465 743 465 732 465 722 465 712 465 702 465 691 465 681 465 671 465 661 465 650 465 640 465 630 465 619 465 609 465 599 465 589 465 578 465 568 465 558 465 548 465 537 465 527 465 517 465 507 465 496 465 486 465 476 465 466 465 455 465 445 465 435 465Z" fill="#4472C4"/></g><g clip-path="url(#clip2)"><path d="M435 255 445 255 455 255 466 255 476 255 486 255 496 255 507 255 517 255 527 255 537 255 548 255 558 255 568 255 578 255 589 255 599 255 609 255 619 255 630 255 640 255 650 255 661 255 671 255 681 255 691 255 702 255 712 255 722 255 732 255 743 255 753 255 763 255 773 255 784 255 794 255 804 255 814 255 825 255 835 255 845 255 845 324 835 349 825 359 814 327 804 345 794 368 784 365 773 348 763 360 753 350 743 386 732 415 722 364 712 383 702 312 691 380 681 377 671 327 661 380 650 383 640 370 630 352 619 376 609 400 599 367 589 265 578 367 568 363 558 373 548 345 537 369 527 387 517 355 507 366 496 348 486 355 476 321 466 336 455 304 445 367 435 353Z" fill="#ED7D31"/></g></g></svg>