<svg width="837" height="400" xmlns="http://www.w3.org/2000/svg" xmlns:xlink="http://www.w3.org/1999/xlink" overflow="hidden"><defs><filter id="fx0" x="-10%" y="-10%" width="120%" height="120%" filterUnits="userSpaceOnUse" primitiveUnits="userSpaceOnUse"><feComponentTransfer color-interpolation-filters="sRGB"><feFuncR type="discrete" tableValues="0 0"/><feFuncG type="discrete" tableValues="0 0"/><feFuncB type="discrete" tableValues="0 0"/><feFuncA type="linear" slope="0.631373" intercept="0"/></feComponentTransfer><feGaussianBlur stdDeviation="2 2"/></filter><filter id="fx1" x="-10%" y="-10%" width="120%" height="120%" filterUnits="userSpaceOnUse" primitiveUnits="userSpaceOnUse"><feComponentTransfer color-interpolation-filters="sRGB"><feFuncR type="discrete" tableValues="0 0"/><feFuncG type="discrete" tableValues="0 0"/><feFuncB type="discrete" tableValues="0 0"/><feFuncA type="linear" slope="0.631373" intercept="0"/></feComponentTransfer><feGaussianBlur stdDeviation="2 2"/></filter><filter id="fx2" x="-10%" y="-10%" width="120%" height="120%" filterUnits="userSpaceOnUse" primitiveUnits="userSpaceOnUse"><feComponentTransfer color-interpolation-filters="sRGB"><feFuncR type="discrete" tableValues="0 0"/><feFuncG type="discrete" tableValues="0 0"/><feFuncB type="discrete" tableValues="0 0"/><feFuncA type="linear" slope="0.631373" intercept="0"/></feComponentTransfer><feGaussianBlur stdDeviation="2 2"/></filter><filter id="fx3" x="-10%" y="-10%" width="120%" height="120%" filterUnits="userSpaceOnUse" primitiveUnits="userSpaceOnUse"><feComponentTransfer color-interpolation-filters="sRGB"><feFuncR type="discrete" tableValues="0 0"/><feFuncG type="discrete" tableValues="0 0"/><feFuncB type="discrete" tableValues="0 0"/><feFuncA type="linear" slope="0.631373" intercept="0"/></feComponentTransfer><feGaussianBlur stdDeviation="2 2"/></filter><filter id="fx4" x="-10%" y="-10%" width="120%" height="120%" filterUnits="userSpaceOnUse" primitiveUnits="userSpaceOnUse"><feComponentTransfer color-interpolation-filters="sRGB"><feFuncR type="discrete" tableValues="0 0"/><feFuncG type="discrete" tableValues="0 0"/><feFuncB type="discrete" tableValues="0 0"/><feFuncA type="linear" slope="0.631373" intercept="0"/></feComponentTransfer><feGaussianBlur stdDeviation="2 2"/></filter><filter id="fx5" x="-10%" y="-10%" width="120%" height="120%" filterUnits="userSpaceOnUse" primitiveUnits="userSpaceOnUse"><feComponentTransfer color-interpolation-filters="sRGB"><feFuncR type="discrete" tableValues="0 0"/><feFuncG type="discrete" tableValues="0 0"/><feFuncB type="discrete" tableValues="0 0"/><feFuncA type="linear" slope="0.631373" intercept="0"/></feComponentTransfer><feGaussianBlur stdDeviation="2 2"/></filter><clipPath id="clip6"><rect x="160" y="121" width="837" height="400"/></clipPath><clipPath id="clip7"><rect x="160" y="121" width="836" height="398"/></clipPath><clipPath id="clip8"><rect x="199" y="136" width="771" height="321"/></clipPath><clipPath id="clip9"><rect x="-2" y="-2" width="786" height="26"/></clipPath><clipPath id="clip10"><rect x="0" y="0" width="783" height="21"/></clipPath><clipPath id="clip11"><rect x="199" y="136" width="771" height="321"/></clipPath><clipPath id="clip12"><rect x="-2" y="-2" width="786" height="99"/></clipPath><clipPath id="clip13"><rect x="0" y="0" width="783" height="94"/></clipPath><clipPath id="clip14"><rect x="199" y="136" width="771" height="321"/></clipPath><clipPath id="clip15"><rect x="-2" y="-2" width="786" height="124"/></clipPath><clipPath id="clip16"><rect x="0" y="0" width="783" height="122"/></clipPath><clipPath id="clip17"><rect x="199" y="136" width="771" height="321"/></clipPath><clipPath id="clip18"><rect x="-2" y="-2" width="786" height="143"/></clipPath><clipPath id="clip19"><rect x="0" y="0" width="783" height="141"/></clipPath><clipPath id="clip20"><rect x="199" y="136" width="771" height="321"/></clipPath><clipPath id="clip21"><rect x="-2" y="-2" width="786" height="165"/></clipPath><clipPath id="clip22"><rect x="0" y="0" width="783" height="162"/></clipPath><clipPath id="clip23"><rect x="199" y="136" width="771" height="321"/></clipPath><clipPath id="clip24"><rect x="-2" y="-2" width="786" height="257"/></clipPath><clipPath id="clip25"><rect x="0" y="0" width="783" height="253"/></clipPath><clipPath id="clip26"><rect x="199" y="136" width="771" height="321"/></clipPath><linearGradient x1="584.5" y1="447" x2="584.5" y2="457" gradientUnits="userSpaceOnUse" spreadMethod="reflect" id="fill27"><stop offset="0" stop-color="#6083CB"/><stop offset="0.5" stop-color="#3E70CA"/><stop offset="1" stop-color="#2E61BA"/></linearGradient><clipPath id="clip28"><rect x="199" y="136" width="771" height="321"/></clipPath><linearGradient x1="584.5" y1="374" x2="584.5" y2="455" gradientUnits="userSpaceOnUse" spreadMethod="reflect" id="fill29"><stop offset="0" stop-color="#F18C55"/><stop offset="0.5" stop-color="#F67B28"/><stop offset="1" stop-color="#E56B17"/></linearGradient><clipPath id="clip30"><rect x="199" y="136" width="771" height="321"/></clipPath><linearGradient x1="584.5" y1="342" x2="584.5" y2="450" gradientUnits="userSpaceOnUse" spreadMethod="reflect" id="fill31"><stop offset="0" stop-color="#AFAFAF"/><stop offset="0.5" stop-color="#A5A5A5"/><stop offset="1" stop-color="#929292"/></linearGradient><clipPath id="clip32"><rect x="199" y="136" width="771" height="321"/></clipPath><linearGradient x1="584.5" y1="320" x2="584.5" y2="447" gradientUnits="userSpaceOnUse" spreadMethod="reflect" id="fill33"><stop offset="0" stop-color="#FFC746"/><stop offset="0.5" stop-color="#FFC600"/><stop offset="1" stop-color="#E5B600"/></linearGradient><clipPath id="clip34"><rect x="199" y="136" width="771" height="321"/></clipPath><linearGradient x1="584.5" y1="291" x2="584.5" y2="439" gradientUnits="userSpaceOnUse" spreadMethod="reflect" id="fill35"><stop offset="0" stop-color="#71A6DB"/><stop offset="0.5" stop-color="#559BDB"/><stop offset="1" stop-color="#438AC9"/></linearGradient><clipPath id="clip36"><rect x="199" y="136" width="771" height="321"/></clipPath><linearGradient x1="584.5" y1="196" x2="584.5" y2="435" gradientUnits="userSpaceOnUse" spreadMethod="reflect" id="fill37"><stop offset="0" stop-color="#81B861"/><stop offset="0.5" stop-color="#6FB242"/><stop offset="1" stop-color="#61A235"/></linearGradient><clipPath id="clip38"><rect x="160" y="121" width="836" height="398"/></clipPath><clipPath id="clip39"><rect x="160" y="121" width="836" height="398"/></clipPath><clipPath id="clip40"><rect x="160" y="121" width="836" height="398"/></clipPath><clipPath id="clip41"><rect x="160" y="121" width="836" height="398"/></clipPath><clipPath id="clip42"><rect x="160" y="121" width="836" height="398"/></clipPath><clipPath id="clip43"><rect x="160" y="121" width="836" height="398"/></clipPath><clipPath id="clip44"><rect x="160" y="121" width="836" height="398"/></clipPath><clipPath id="clip45"><rect x="160" y="121" width="836" height="398"/></clipPath><clipPath id="clip46"><rect x="160" y="121" width="836" height="398"/></clipPath><clipPath id="clip47"><rect x="160" y="121" width="836" height="398"/></clipPath><clipPath id="clip48"><rect x="160" y="121" width="836" height="398"/></clipPath><clipPath id="clip49"><rect x="160" y="121" width="836" height="398"/></clipPath><clipPath id="clip50"><rect x="160" y="121" width="836" height="398"/></clipPath><clipPath id="clip51"><rect x="160" y="121" width="836" height="398"/></clipPath><clipPath id="clip52"><rect x="160" y="121" width="836" height="398"/></clipPath><clipPath id="clip53"><rect x="160" y="121" width="836" height="398"/></clipPath><clipPath id="clip54"><rect x="160" y="121" width="836" height="398"/></clipPath><clipPath id="clip55"><rect x="160" y="121" width="836" height="398"/></clipPath><clipPath id="clip56"><rect x="160" y="121" width="836" height="398"/></clipPath><linearGradient x1="383" y1="497" x2="383" y2="504" gradientUnits="userSpaceOnUse" spreadMethod="reflect" id="fill57"><stop offset="0" stop-color="#6083CB"/><stop offset="0.5" stop-color="#3E70CA"/><stop offset="1" stop-color="#2E61BA"/></linearGradient><clipPath id="clip58"><rect x="160" y="121" width="836" height="398"/></clipPath><clipPath id="clip59"><rect x="160" y="121" width="836" height="398"/></clipPath><clipPath id="clip60"><rect x="160" y="121" width="836" height="398"/></clipPath><linearGradient x1="470.5" y1="497" x2="470.5" y2="504" gradientUnits="userSpaceOnUse" spreadMethod="reflect" id="fill61"><stop offset="0" stop-color="#F18C55"/><stop offset="0.5" stop-color="#F67B28"/><stop offset="1" stop-color="#E56B17"/></linearGradient><clipPath id="clip62"><rect x="160" y="121" width="836" height="398"/></clipPath><clipPath id="clip63"><rect x="160" y="121" width="836" height="398"/></clipPath><clipPath id="clip64"><rect x="160" y="121" width="836" height="398"/></clipPath><linearGradient x1="546" y1="497" x2="546" y2="504" gradientUnits="userSpaceOnUse" spreadMethod="reflect" id="fill65"><stop offset="0" stop-color="#AFAFAF"/><stop offset="0.5" stop-color="#A5A5A5"/><stop offset="1" stop-color="#929292"/></linearGradient><clipPath id="clip66"><rect x="160" y="121" width="836" height="398"/></clipPath><clipPath id="clip67"><rect x="160" y="121" width="836" height="398"/></clipPath><clipPath id="clip68"><rect x="160" y="121" width="836" height="398"/></clipPath><linearGradient x1="609.5" y1="497" x2="609.5" y2="504" gradientUnits="userSpaceOnUse" spreadMethod="reflect" id="fill69"><stop offset="0" stop-color="#FFC746"/><stop offset="0.5" stop-color="#FFC600"/><stop offset="1" stop-color="#E5B600"/></linearGradient><clipPath id="clip70"><rect x="160" y="121" width="836" height="398"/></clipPath><clipPath id="clip71"><rect x="160" y="121" width="836" height="398"/></clipPath><clipPath id="clip72"><rect x="160" y="121" width="836" height="398"/></clipPath><linearGradient x1="673" y1="497" x2="673" y2="504" gradientUnits="userSpaceOnUse" spreadMethod="reflect" id="fill73"><stop offset="0" stop-color="#71A6DB"/><stop offset="0.5" stop-color="#559BDB"/><stop offset="1" stop-color="#438AC9"/></linearGradient><clipPath id="clip74"><rect x="160" y="121" width="836" height="398"/></clipPath><clipPath id="clip75"><rect x="160" y="121" width="836" height="398"/></clipPath><clipPath id="clip76"><rect x="160" y="121" width="836" height="398"/></clipPath><linearGradient x1="736.5" y1="497" x2="736.5" y2="504" gradientUnits="userSpaceOnUse" spreadMethod="reflect" id="fill77"><stop offset="0" stop-color="#81B861"/><stop offset="0.5" stop-color="#6FB242"/><stop offset="1" stop-color="#61A235"/></linearGradient><clipPath id="clip78"><rect x="160" y="121" width="836" height="398"/></clipPath><clipPath id="clip79"><rect x="160" y="121" width="836" height="398"/></clipPath></defs><g clip-path="url(#clip6)" transform="translate(-160 -121)"><g clip-path="url(#clip7)"><path d="M199.5 403.5 969.5 403.5M199.5 350.5 969.5 350.5M199.5 296.5 969.5 296.5M199.5 243.5 969.5 243.5M199.5 189.5 969.5 189.5M199.5 136.5 969.5 136.5" stroke="#D9D9D9" stroke-linejoin="round" stroke-miterlimit="10" fill="none"/></g><g clip-path="url(#clip8)"><g clip-path="url(#clip9)" filter="url(#fx0)" transform="translate(193 442)"><g clip-path="url(#clip10)"><path d="M6 7 199 8 391 11 584 14 777 15 777 17 584 17 391 17 199 17 6 17Z" fill="#FF0000"/></g></g></g><g clip-path="url(#clip11)"><g clip-path="url(#clip12)" filter="url(#fx1)" transform="translate(193 369)"><g clip-path="url(#clip13)"><path d="M6 80 199 81 391 83 584 28 777 7 777 88 584 87 391 84 199 81 6 80Z" fill="#FF0000"/></g></g></g><g clip-path="url(#clip14)"><g clip-path="url(#clip15)" filter="url(#fx2)" transform="translate(193 337)"><g clip-path="url(#clip16)"><path d="M6 112 199 100 391 30 584 25 777 7 777 39 584 60 391 115 199 113 6 112Z" fill="#FF0000"/></g></g></g><g clip-path="url(#clip17)"><g clip-path="url(#clip18)" filter="url(#fx3)" transform="translate(193 315)"><g clip-path="url(#clip19)"><path d="M6 126 199 79 391 18 584 13 777 7 777 29 584 47 391 52 199 122 6 134Z" fill="#FF0000"/></g></g></g><g clip-path="url(#clip20)"><g clip-path="url(#clip21)" filter="url(#fx4)" transform="translate(193 286)"><g clip-path="url(#clip22)"><path d="M6 151 199 86 391 41 584 7 777 25 777 36 584 42 391 47 199 108 6 155Z" fill="#FF0000"/></g></g></g><g clip-path="url(#clip23)"><g clip-path="url(#clip24)" filter="url(#fx5)" transform="translate(193 191)"><g clip-path="url(#clip25)"><path d="M6 207 199 80 391 69 584 7 777 34 777 120 584 102 391 136 199 181 6 246Z" fill="#FF0000"/></g></g></g><g clip-path="url(#clip26)"><path d="M199 447 392 448 584 451 777 454 970 455 970 457 777 457 584 457 392 457 199 457Z" fill="url(#fill27)"/></g><g clip-path="url(#clip28)"><path d="M199 447 392 448 584 450 777 395 970 374 970 455 777 454 584 451 392 448 199 447Z" fill="url(#fill29)"/></g><g clip-path="url(#clip30)"><path d="M199 447 392 435 584 365 777 360 970 342 970 374 777 395 584 450 392 448 199 447Z" fill="url(#fill31)"/></g><g clip-path="url(#clip32)"><path d="M199 439 392 392 584 331 777 326 970 320 970 342 777 360 584 365 392 435 199 447Z" fill="url(#fill33)"/></g><g clip-path="url(#clip34)"><path d="M199 435 392 370 584 325 777 291 970 309 970 320 777 326 584 331 392 392 199 439Z" fill="url(#fill35)"/></g><g clip-path="url(#clip36)"><path d="M199 396 392 269 584 258 777 196 970 223 970 309 777 291 584 325 392 370 199 435Z" fill="url(#fill37)"/></g><g clip-path="url(#clip38)"><path d="M199.5 456.5 969.5 456.5" stroke="#D9D9D9" stroke-width="1.33333" stroke-linejoin="round" stroke-miterlimit="10" fill="none" fill-rule="evenodd"/></g><g clip-path="url(#clip39)"><text fill="#595959" font-family="Calibri,Calibri_MSFontService,sans-serif" font-weight="400" font-size="12" transform="translate(181.804 460)">0</text></g><g clip-path="url(#clip40)"><text fill="#595959" font-family="Calibri,Calibri_MSFontService,sans-serif" font-weight="400" font-size="12" transform="translate(175.724 407)">50</text></g><g clip-path="url(#clip41)"><text fill="#595959" font-family="Calibri,Calibri_MSFontService,sans-serif" font-weight="400" font-size="12" transform="translate(169.644 353)">100</text></g><g clip-path="url(#clip42)"><text fill="#595959" font-family="Calibri,Calibri_MSFontService,sans-serif" font-weight="400" font-size="12" transform="translate(169.644 300)">150</text></g><g clip-path="url(#clip43)"><text fill="#595959" font-family="Calibri,Calibri_MSFontService,sans-serif" font-weight="400" font-size="12" transform="translate(169.644 246)">200</text></g><g clip-path="url(#clip44)"><text fill="#595959" font-family="Calibri,Calibri_MSFontService,sans-serif" font-weight="400" font-size="12" transform="translate(169.644 193)">250</text></g><g clip-path="url(#clip45)"><text fill="#595959" font-family="Calibri,Calibri_MSFontService,sans-serif" font-weight="400" font-size="12" transform="translate(169.644 139)">300</text></g><g clip-path="url(#clip46)"><text fill="#595959" font-family="Calibri,Calibri_MSFontService,sans-serif" font-weight="400" font-size="12" transform="translate(189.976 477)">8</text></g><g clip-path="url(#clip47)"><text fill="#595959" font-family="DengXian,DengXian_MSFontService,sans-serif" font-weight="400" font-size="12" transform="translate(196.056 477)">月</text></g><g clip-path="url(#clip48)"><text fill="#595959" font-family="Calibri,Calibri_MSFontService,sans-serif" font-weight="400" font-size="12" transform="translate(382.647 477)">9</text></g><g clip-path="url(#clip49)"><text fill="#595959" font-family="DengXian,DengXian_MSFontService,sans-serif" font-weight="400" font-size="12" transform="translate(388.727 477)">月</text></g><g clip-path="url(#clip50)"><text fill="#595959" font-family="Calibri,Calibri_MSFontService,sans-serif" font-weight="400" font-size="12" transform="translate(572.277 477)">10</text></g><g clip-path="url(#clip51)"><text fill="#595959" font-family="DengXian,DengXian_MSFontService,sans-serif" font-weight="400" font-size="12" transform="translate(584.437 477)">月</text></g><g clip-path="url(#clip52)"><text fill="#595959" font-family="Calibri,Calibri_MSFontService,sans-serif" font-weight="400" font-size="12" transform="translate(764.947 477)">11</text></g><g clip-path="url(#clip53)"><text fill="#595959" font-family="DengXian,DengXian_MSFontService,sans-serif" font-weight="400" font-size="12" transform="translate(777.107 477)">月</text></g><g clip-path="url(#clip54)"><text fill="#595959" font-family="Calibri,Calibri_MSFontService,sans-serif" font-weight="400" font-size="12" transform="translate(957.618 477)">12</text></g><g clip-path="url(#clip55)"><text fill="#595959" font-family="DengXian,DengXian_MSFontService,sans-serif" font-weight="400" font-size="12" transform="translate(969.778 477)">月</text></g><g clip-path="url(#clip56)"><rect x="380" y="497" width="6" height="7" fill="url(#fill57)"/></g><g clip-path="url(#clip58)"><path d="" fill="#595959" transform="translate(389.041 504)"/><path d="M10.9922-9.65625C11.625-9.60156 12.1885-9.45801 12.6826-9.22559 13.1768-8.99316 13.5937-8.68652 13.9336-8.30566 14.2734-7.9248 14.5322-7.47461 14.71-6.95508 14.8877-6.43555 14.9766-5.86133 14.9766-5.23242L14.9766-5.05664C14.9766-4.84961 14.9629-4.64453 14.9355-4.44141 14.9082-4.23828 14.875-4.03516 14.8359-3.83203 14.7461-3.37891 14.624-2.93848 14.4697-2.51074 14.3154-2.08301 14.1221-1.67578 13.8896-1.28906 13.6572-0.902344 13.3867-0.542969 13.0781-0.210938 12.7695 0.121094 12.418 0.414062 12.0234 0.667969L12.0234 2.52539 11.6133 2.52539C11.3711 2.52539 11.1396 2.51758 10.9189 2.50195 10.6982 2.48633 10.4873 2.44727 10.2861 2.38477 10.085 2.32227 9.89453 2.23242 9.71484 2.11523 9.53516 1.99805 9.36719 1.83594 9.21094 1.62891 8.88672 1.66406 8.56055 1.68164 8.23242 1.68164 7.50586 1.68164 6.81934 1.61035 6.17285 1.46777 5.52637 1.3252 4.93359 1.09766 4.39453 0.785156 3.85547 0.472656 3.375 0.0693359 2.95312-0.424805 2.53125-0.918945 2.18359-1.51758 1.91016-2.2207 1.85156-2.36523 1.79785-2.52148 1.74902-2.68945 1.7002-2.85742 1.65723-3.02734 1.62012-3.19922 1.58301-3.37109 1.55371-3.54395 1.53223-3.71777 1.51074-3.8916 1.5-4.05664 1.5-4.21289 1.5-4.31445 1.49805-4.41406 1.49414-4.51172 1.49023-4.60938 1.48828-4.70898 1.48828-4.81055 1.48828-4.92383 1.49316-5.03613 1.50293-5.14746 1.5127-5.25879 1.5332-5.36523 1.56445-5.4668 1.5957-5.56836 1.63965-5.66504 1.69629-5.75684 1.75293-5.84863 1.82812-5.93359 1.92188-6.01172L1.92188-6.31641C1.92187-6.55469 1.96484-6.77734 2.05078-6.98438 2.13672-7.19141 2.25391-7.37012 2.40234-7.52051 2.55078-7.6709 2.72754-7.78906 2.93262-7.875 3.1377-7.96094 3.36133-8.00391 3.60352-8.00391L6.9668-8.00391C7.11523-8.00391 7.25977-7.99219 7.40039-7.96875 7.54102-7.94531 7.67969-7.90625 7.81641-7.85156L7.81641-10.9512 8.6543-10.9512C8.90039-10.9512 9.13965-10.9268 9.37207-10.8779 9.60449-10.8291 9.82227-10.7529 10.0254-10.6494 10.2285-10.5459 10.4131-10.4121 10.5791-10.248 10.7451-10.084 10.8828-9.88672 10.9922-9.65625ZM11.1738-5.47852C11.1738-5.60352 11.1514-5.72852 11.1064-5.85352 11.0615-5.97852 10.9883-6.08008 10.8867-6.1582 10.6992-5.84961 10.458-5.6084 10.1631-5.43457 9.86816-5.26074 9.54492-5.14648 9.19336-5.0918 9.25195-4.99805 9.3252-4.92188 9.41309-4.86328 9.50098-4.80469 9.5957-4.75781 9.69727-4.72266 9.79883-4.6875 9.90527-4.66406 10.0166-4.65234 10.1279-4.64062 10.2344-4.63477 10.3359-4.63477 10.6055-4.63477 10.8125-4.70801 10.957-4.85449 11.1016-5.00098 11.1738-5.20898 11.1738-5.47852Z" transform="translate(389.041 504)"/><path d="M10.3418-8.84766C10.8965-8.84766 11.4062-8.77441 11.8711-8.62793 12.3359-8.48145 12.7363-8.26172 13.0723-7.96875 13.4082-7.67578 13.6689-7.31055 13.8545-6.87305 14.04-6.43555 14.1328-5.92578 14.1328-5.34375 14.1328-4.74609 14.0635-4.16016 13.9248-3.58594 13.7861-3.01172 13.5762-2.46094 13.2949-1.93359 13.2168-1.78516 13.1455-1.65625 13.0811-1.54688 13.0166-1.4375 12.9453-1.34375 12.8672-1.26562 12.8242-1.22266 12.7363-1.1748 12.6035-1.12207 12.4707-1.06934 12.3252-1.01953 12.167-0.972656 12.0088-0.925781 11.8564-0.883789 11.71-0.84668 11.5635-0.80957 11.4551-0.785156 11.3848-0.773438 11.4121-0.707031 11.4297-0.642578 11.4375-0.580078 11.4453-0.517578 11.4492-0.451172 11.4492-0.380859L11.4492-0.251953 11.1797 0.1875 11.1797 1.68164C10.9648 1.68164 10.7793 1.65918 10.623 1.61426 10.4668 1.56934 10.335 1.5127 10.2275 1.44434 10.1201 1.37598 10.0332 1.30078 9.9668 1.21875 9.90039 1.13672 9.8457 1.05957 9.80273 0.987305 9.75977 0.915039 9.72656 0.853516 9.70312 0.802734 9.67969 0.751953 9.66016 0.722656 9.64453 0.714844 9.55469 0.671875 9.46484 0.628906 9.375 0.585938 9.28516 0.542969 9.19531 0.498047 9.10547 0.451172L9.10547-0.65625C9.07031-0.648438 9.04199-0.644531 9.02051-0.644531 8.99902-0.644531 8.97852-0.644531 8.95898-0.644531 8.76367-0.644531 8.56934-0.649414 8.37598-0.65918 8.18262-0.668945 7.98633-0.677734 7.78711-0.685547 7.5293-0.697266 7.28418-0.725586 7.05176-0.770508 6.81934-0.81543 6.60254-0.886719 6.40137-0.984375 6.20019-1.08203 6.0166-1.21191 5.85059-1.37402 5.68457-1.53613 5.54102-1.74023 5.41992-1.98633 5.36133-2.10742 5.3125-2.23242 5.27344-2.36133 5.23438-2.49023 5.21094-2.62305 5.20312-2.75977L3.31641-5.76562C3.30078-5.78906 3.29199-5.80371 3.29004-5.80957 3.28809-5.81543 3.28711-5.82031 3.28711-5.82422 3.28711-5.82812 3.28418-5.83301 3.27832-5.83887 3.27246-5.84473 3.25977-5.85938 3.24023-5.88281 3.22461-5.89844 3.19141-5.92871 3.14062-5.97363 3.08984-6.01855 3.03613-6.06543 2.97949-6.11426 2.92285-6.16309 2.87207-6.20703 2.82715-6.24609 2.78223-6.28516 2.75977-6.30859 2.75977-6.31641 2.75977-6.4375 2.78027-6.5498 2.82129-6.65332 2.8623-6.75684 2.9209-6.84668 2.99707-6.92285 3.07324-6.99902 3.16211-7.05762 3.26367-7.09863 3.36523-7.13965 3.47852-7.16016 3.60352-7.16016L6.9668-7.16016C7.1543-7.16016 7.32519-7.12891 7.47949-7.06641 7.63379-7.00391 7.7666-6.91699 7.87793-6.80566 7.98926-6.69434 8.0752-6.56152 8.13574-6.40723 8.19629-6.25293 8.22656-6.08203 8.22656-5.89453L8.22656-5.47852C8.22656-5.37305 8.23926-5.26953 8.26465-5.16797 8.29004-5.06641 8.32422-4.9668 8.36719-4.86914 8.45703-4.66602 8.57031-4.49512 8.70703-4.35645 8.84375-4.21777 8.99707-4.10645 9.16699-4.02246 9.33691-3.93848 9.52051-3.87891 9.71777-3.84375 9.91504-3.80859 10.1191-3.79102 10.3301-3.79102 10.4199-3.79102 10.5088-3.79883 10.5967-3.81445 10.6846-3.83008 10.7734-3.85156 10.8633-3.87891 11.2539-3.99609 11.5439-4.19141 11.7334-4.46484 11.9229-4.73828 12.0176-5.07617 12.0176-5.47852 12.0176-5.56836 12.0098-5.6582 11.9941-5.74805 11.9785-5.83789 11.957-5.92578 11.9297-6.01172 11.8125-6.40234 11.6191-6.69141 11.3496-6.87891 11.0801-7.06641 10.7441-7.16016 10.3418-7.16016 10.3418-7.08984 10.333-7.02051 10.3154-6.95215 10.2979-6.88379 10.2754-6.81641 10.248-6.75 10.1816-6.58594 10.0918-6.44922 9.97852-6.33984 9.86523-6.23047 9.73828-6.14258 9.59766-6.07617 9.45703-6.00977 9.30664-5.96289 9.14648-5.93555 8.98633-5.9082 8.82422-5.89453 8.66016-5.89453L8.66016-7.58203 9.08203-8.00391 8.66016-8.42578 8.66016-10.1074C8.82422-10.1074 8.98633-10.0938 9.14648-10.0664 9.30664-10.0391 9.45703-9.99219 9.59766-9.92578 9.73828-9.85938 9.86523-9.77246 9.97852-9.66504 10.0918-9.55762 10.1816-9.42188 10.248-9.25781 10.2754-9.19141 10.2979-9.12402 10.3154-9.05566 10.333-8.9873 10.3418-8.91797 10.3418-8.84766Z" fill="#00BCF2" transform="translate(389.041 504)"/><path d="M2.95312-6.31641 5.71289-6.31641C5.7793-6.31641 5.85449-6.30664 5.93848-6.28711 6.02246-6.26758 6.0918-6.24023 6.14648-6.20508 6.23242-6.1543 6.28223-6.08301 6.2959-5.99121 6.30957-5.89941 6.31641-5.80859 6.31641-5.71875 6.31641-5.61328 6.31738-5.5127 6.31934-5.41699 6.32129-5.32129 6.32227-5.22461 6.32227-5.12695 6.32227-4.99805 6.32031-4.86914 6.31641-4.74023 6.3125-4.61133 6.30273-4.48438 6.28711-4.35938 6.24414-4.42578 6.18848-4.50195 6.12012-4.58789 6.05176-4.67383 5.97754-4.75586 5.89746-4.83398 5.81738-4.91211 5.73242-4.97754 5.64258-5.03027 5.55273-5.08301 5.4668-5.10938 5.38477-5.10938L2.95312-5.10938Z" fill="#FFFFFF" transform="translate(389.041 504)"/><path d="M6.13477-6.21094C6.2832-6.13672 6.38965-6.03711 6.4541-5.91211 6.51855-5.78711 6.55078-5.64258 6.55078-5.47852L6.55078-3.36914C6.55078-3.24414 6.51269-3.14258 6.43652-3.06445 6.36035-2.98633 6.25977-2.94727 6.13477-2.94727 6.06836-2.94727 6.00391-2.94824 5.94141-2.9502 5.87891-2.95215 5.81445-2.95312 5.74805-2.95312L5.74805-4.4707 6.13477-4.63477ZM2.76562-5.00391 2.76562-6.31641 3.18164-6.31641 3.18164-5.00391ZM5.29102-5.05664 5.29102-6.31641 5.71289-6.31641 5.71289-5.05664ZM4.44727-5.0625 4.44727-6.31641 4.86914-6.31641 4.86914-5.0625ZM3.60352-5.0625 3.60352-6.31641 4.02539-6.31641 4.02539-5.0625Z" fill="#CCCCCC" transform="translate(389.041 504)"/><path d="M7.38867-4.63477C7.50195-4.63477 7.60059-4.59277 7.68457-4.50879 7.76855-4.4248 7.81055-4.32617 7.81055-4.21289L7.81055-3.79102C7.81055-3.67773 7.76855-3.5791 7.68457-3.49512 7.60059-3.41113 7.50195-3.36914 7.38867-3.36914 7.27148-3.36914 7.17187-3.41016 7.08984-3.49219 7.00781-3.57422 6.9668-3.67383 6.9668-3.79102L6.9668-4.21289C6.9668-4.33008 7.00781-4.42969 7.08984-4.51172 7.17187-4.59375 7.27148-4.63477 7.38867-4.63477Z" transform="translate(389.041 504)"/><path d="M9.49219-1.26562 9.49219 0C9.49219 0.125 9.50586 0.24707 9.5332 0.366211 9.56055 0.485352 9.59766 0.601562 9.64453 0.714844 9.41016 0.757812 9.1748 0.790039 8.93848 0.811523 8.70215 0.833008 8.46484 0.84375 8.22656 0.84375 7.59766 0.84375 7 0.783203 6.43359 0.662109 5.86719 0.541016 5.3457 0.347656 4.86914 0.0820312 4.39258-0.183594 3.96777-0.530273 3.59473-0.958008 3.22168-1.38574 2.91602-1.9082 2.67773-2.52539 2.63086-2.64648 2.58594-2.77832 2.54297-2.9209 2.5-3.06348 2.46387-3.20801 2.43457-3.35449 2.40527-3.50098 2.38184-3.64746 2.36426-3.79395 2.34668-3.94043 2.33789-4.08008 2.33789-4.21289L2.33789-5.05664C2.33789-5.18164 2.37695-5.2832 2.45508-5.36133 2.5332-5.43945 2.63477-5.47852 2.75977-5.47852L5.2793-5.47852C5.40039-5.47852 5.51367-5.45801 5.61914-5.41699 5.72461-5.37598 5.81543-5.31836 5.8916-5.24414 5.96777-5.16992 6.02734-5.08105 6.07031-4.97754 6.11328-4.87402 6.13477-4.75977 6.13477-4.63477L6.13477-2.52539C6.13477-2.3418 6.16504-2.17285 6.22559-2.01855 6.28613-1.86426 6.37207-1.73145 6.4834-1.62012 6.59473-1.50879 6.72754-1.42188 6.88184-1.35938 7.03613-1.29688 7.20508-1.26562 7.38867-1.26562ZM10.6406-1.26562 12.8672-1.26562C12.418-0.652344 11.8555-0.167969 11.1797 0.1875 11.1797 0.0429688 11.1729-0.0957031 11.1592-0.228516 11.1455-0.361328 11.1201-0.488281 11.083-0.609375 11.0459-0.730469 10.9922-0.845703 10.9219-0.955078 10.8516-1.06445 10.7578-1.16797 10.6406-1.26562Z" fill="#69EAFF" transform="translate(389.041 504)"/></g><g clip-path="url(#clip59)"><text fill="#595959" font-family="DengXian,DengXian_MSFontService,sans-serif" font-weight="400" font-size="12" transform="translate(405.514 504)">自我提升</text></g><g clip-path="url(#clip60)"><rect x="467" y="497" width="7" height="7" fill="url(#fill61)"/></g><g clip-path="url(#clip62)"><path d="" fill="#595959" transform="translate(476.864 504)"/><path d="M11.8652-3.67969 13.9746-2.625C14.1621-2.53125 14.3057-2.40137 14.4053-2.23535 14.5049-2.06934 14.5547-1.88086 14.5547-1.66992 14.5547-1.5293 14.5264-1.39551 14.4697-1.26855 14.4131-1.1416 14.3359-1.03125 14.2383-0.9375 14.1406-0.84375 14.0283-0.769531 13.9014-0.714844 13.7744-0.660156 13.6406-0.632812 13.5-0.632812 13.3359-0.632812 13.1797-0.669922 13.0312-0.744141L11.4727-1.52344C11.4961-1.44922 11.5391-1.32324 11.6016-1.14551 11.6641-0.967773 11.7334-0.766602 11.8096-0.541992 11.8857-0.317383 11.9658-0.0810547 12.0498 0.166992 12.1338 0.415039 12.2109 0.645508 12.2812 0.858398 12.3516 1.07129 12.4092 1.25293 12.4541 1.40332 12.499 1.55371 12.5215 1.64648 12.5215 1.68164 12.5215 1.79883 12.4805 1.89844 12.3984 1.98047 12.3164 2.0625 12.2168 2.10352 12.0996 2.10352 12.0059 2.10352 11.9219 2.07617 11.8477 2.02148L8.02734-0.826172 4.20703 2.02148C4.13281 2.07617 4.04883 2.10352 3.95508 2.10352 3.83789 2.10352 3.73828 2.0625 3.65625 1.98047 3.57422 1.89844 3.5332 1.79883 3.5332 1.68164 3.5332 1.64648 3.55566 1.55371 3.60059 1.40332 3.64551 1.25293 3.70312 1.07129 3.77344 0.858398 3.84375 0.645508 3.9209 0.415039 4.00488 0.166992 4.08887-0.0810547 4.16895-0.317383 4.24512-0.541992 4.32129-0.766602 4.39062-0.967773 4.45312-1.14551 4.51562-1.32324 4.55859-1.44922 4.58203-1.52344L3.02344-0.744141C2.875-0.669922 2.71875-0.632812 2.55469-0.632812 2.41406-0.632812 2.28027-0.660156 2.15332-0.714844 2.02637-0.769531 1.91406-0.84375 1.81641-0.9375 1.71875-1.03125 1.6416-1.1416 1.58496-1.26855 1.52832-1.39551 1.5-1.5293 1.5-1.66992 1.5-1.88086 1.5498-2.06934 1.64941-2.23535 1.74902-2.40137 1.89258-2.53125 2.08008-2.625L4.18945-3.67969 1.66992-5.56055C1.55664-5.64258 1.5-5.75391 1.5-5.89453 1.5-6.01172 1.54102-6.11133 1.62305-6.19336 1.70508-6.27539 1.80469-6.31641 1.92188-6.31641L4.64062-6.31641 3.49219-7.4707C3.39453-7.56836 3.31836-7.68262 3.26367-7.81348 3.20898-7.94434 3.18164-8.07812 3.18164-8.21484 3.18164-8.35938 3.20996-8.49512 3.2666-8.62207 3.32324-8.74902 3.39941-8.86035 3.49512-8.95605 3.59082-9.05176 3.70215-9.12695 3.8291-9.18164 3.95605-9.23633 4.0918-9.26367 4.23633-9.26367 4.37695-9.26367 4.51074-9.23828 4.6377-9.1875 4.76465-9.13672 4.87891-9.06055 4.98047-8.95898L6.53906-7.40039 7.62891-10.6641C7.66016-10.75 7.71191-10.8193 7.78418-10.8721 7.85644-10.9248 7.9375-10.9512 8.02734-10.9512 8.11719-10.9512 8.19824-10.9248 8.27051-10.8721 8.34277-10.8193 8.39453-10.75 8.42578-10.6641L9.51562-7.40039 11.0742-8.95898C11.1758-9.06055 11.29-9.13672 11.417-9.1875 11.5439-9.23828 11.6777-9.26367 11.8184-9.26367 11.9629-9.26367 12.0986-9.23633 12.2256-9.18164 12.3525-9.12695 12.4639-9.05176 12.5596-8.95605 12.6553-8.86035 12.7314-8.74902 12.7881-8.62207 12.8447-8.49512 12.873-8.35938 12.873-8.21484 12.873-8.07812 12.8457-7.94434 12.791-7.81348 12.7363-7.68262 12.6602-7.56836 12.5625-7.4707L11.4141-6.31641 14.1328-6.31641C14.25-6.31641 14.3496-6.27539 14.4316-6.19336 14.5137-6.11133 14.5547-6.01172 14.5547-5.89453 14.5547-5.75391 14.498-5.64258 14.3848-5.56055Z" transform="translate(476.864 504)"/><path d="M13.5-1.47656C13.4844-1.47656 13.4248-1.5 13.3213-1.54688 13.2178-1.59375 13.0898-1.65332 12.9375-1.72559 12.7852-1.79785 12.6201-1.87793 12.4424-1.96582 12.2646-2.05371 12.0967-2.1377 11.9385-2.21777 11.7803-2.29785 11.6426-2.36816 11.5254-2.42871 11.4082-2.48926 11.334-2.5293 11.3027-2.54883 11.2637-2.57617 11.2344-2.60156 11.2148-2.625 11.1953-2.64844 11.1855-2.68555 11.1855-2.73633 11.1855-2.79492 11.207-2.84473 11.25-2.88574 11.293-2.92676 11.3438-2.94727 11.4023-2.94727 11.4141-2.94727 11.4736-2.92383 11.5811-2.87695 11.6885-2.83008 11.8184-2.76953 11.9707-2.69531 12.123-2.62109 12.2881-2.54102 12.4658-2.45508 12.6436-2.36914 12.8115-2.28613 12.9697-2.20605 13.1279-2.12598 13.2646-2.05566 13.3799-1.99512 13.4951-1.93457 13.5664-1.89453 13.5938-1.875 13.6328-1.84766 13.6621-1.82129 13.6816-1.7959 13.7012-1.77051 13.7109-1.73242 13.7109-1.68164 13.7109-1.62695 13.6895-1.5791 13.6465-1.53809 13.6035-1.49707 13.5547-1.47656 13.5-1.47656ZM2.55469-1.47656C2.5-1.47656 2.45117-1.49707 2.4082-1.53809 2.36523-1.5791 2.34375-1.62695 2.34375-1.68164 2.34375-1.73242 2.35352-1.77051 2.37305-1.7959 2.39258-1.82129 2.42188-1.84766 2.46094-1.875 2.48828-1.89453 2.55957-1.93457 2.6748-1.99512 2.79004-2.05566 2.92578-2.12598 3.08203-2.20605 3.23828-2.28613 3.40527-2.36914 3.58301-2.45508 3.76074-2.54102 3.92676-2.62109 4.08105-2.69531 4.23535-2.76953 4.36523-2.83008 4.4707-2.87695 4.57617-2.92383 4.63672-2.94727 4.65234-2.94727 4.71094-2.94727 4.76172-2.92676 4.80469-2.88574 4.84766-2.84473 4.86914-2.79492 4.86914-2.73633 4.86914-2.68555 4.85938-2.64844 4.83984-2.625 4.82031-2.60156 4.79102-2.57617 4.75195-2.54883 4.7207-2.5293 4.64648-2.48926 4.5293-2.42871 4.41211-2.36816 4.27441-2.29785 4.11621-2.21777 3.95801-2.1377 3.79004-2.05371 3.6123-1.96582 3.43457-1.87793 3.26953-1.79785 3.11719-1.72559 2.96484-1.65332 2.83594-1.59375 2.73047-1.54688 2.625-1.5 2.56641-1.47656 2.55469-1.47656ZM5.92383-6.31641C5.86523-6.31641 5.81445-6.33789 5.77148-6.38086L4.08984-8.0625C4.04688-8.10547 4.02539-8.1543 4.02539-8.20898 4.02539-8.26367 4.04688-8.3125 4.08984-8.35547 4.13281-8.39844 4.18164-8.41992 4.23633-8.41992 4.29883-8.41992 4.34961-8.40039 4.38867-8.36133L6.07031-6.67969C6.10937-6.64062 6.12891-6.58984 6.12891-6.52734 6.12891-6.47266 6.1084-6.42383 6.06738-6.38086 6.02637-6.33789 5.97852-6.31641 5.92383-6.31641ZM10.1309-6.31641C10.0762-6.31641 10.0273-6.33789 9.98438-6.38086 9.94141-6.42383 9.91992-6.47266 9.91992-6.52734 9.91992-6.58594 9.94141-6.63672 9.98438-6.67969L11.666-8.36133C11.7051-8.40039 11.7559-8.41992 11.8184-8.41992 11.873-8.41992 11.9209-8.39844 11.9619-8.35547 12.0029-8.3125 12.0234-8.26367 12.0234-8.20898 12.0234-8.15039 12.0039-8.10156 11.9648-8.0625L10.2832-6.38086C10.2402-6.33789 10.1895-6.31641 10.1309-6.31641Z" fill="#00BCF2" transform="translate(476.864 504)"/><path d="M8.02734-1.76953C7.93359-1.76953 7.84961-1.74219 7.77539-1.6875L4.78125 0.544922 5.97656-3.04102C5.99219-3.08398 6-3.12891 6-3.17578 6-3.31641 5.94336-3.42773 5.83008-3.50977L3.19336-5.47852 6.48047-5.47852C6.57031-5.47852 6.65234-5.50391 6.72656-5.55469 6.80078-5.60547 6.85352-5.67578 6.88477-5.76562L8.02734-9.19922 9.16992-5.76562C9.20117-5.67578 9.25391-5.60547 9.32812-5.55469 9.40234-5.50391 9.48438-5.47852 9.57422-5.47852L12.8613-5.47852 10.2246-3.50977C10.1113-3.42773 10.0547-3.31641 10.0547-3.17578 10.0547-3.12891 10.0625-3.08398 10.0781-3.04102L11.2734 0.544922 8.2793-1.6875C8.20508-1.74219 8.12109-1.76953 8.02734-1.76953Z" fill="#FCE100" transform="translate(476.864 504)"/></g><g clip-path="url(#clip63)"><text fill="#595959" font-family="DengXian,DengXian_MSFontService,sans-serif" font-weight="400" font-size="12" transform="translate(492.924 504)">专业课</text></g><g clip-path="url(#clip64)"><rect x="543" y="497" width="6" height="7" fill="url(#fill65)"/></g><g clip-path="url(#clip66)"><path d="" fill="#595959" transform="translate(552.273 504)"/><path d="M11.8652-3.67969 13.9746-2.625C14.1621-2.53125 14.3057-2.40137 14.4053-2.23535 14.5049-2.06934 14.5547-1.88086 14.5547-1.66992 14.5547-1.5293 14.5264-1.39551 14.4697-1.26855 14.4131-1.1416 14.3359-1.03125 14.2383-0.9375 14.1406-0.84375 14.0283-0.769531 13.9014-0.714844 13.7744-0.660156 13.6406-0.632812 13.5-0.632812 13.3359-0.632812 13.1797-0.669922 13.0312-0.744141L11.4727-1.52344C11.4961-1.44922 11.5391-1.32324 11.6016-1.14551 11.6641-0.967773 11.7334-0.766602 11.8096-0.541992 11.8857-0.317383 11.9658-0.0810547 12.0498 0.166992 12.1338 0.415039 12.2109 0.645508 12.2812 0.858398 12.3516 1.07129 12.4092 1.25293 12.4541 1.40332 12.499 1.55371 12.5215 1.64648 12.5215 1.68164 12.5215 1.79883 12.4805 1.89844 12.3984 1.98047 12.3164 2.0625 12.2168 2.10352 12.0996 2.10352 12.0059 2.10352 11.9219 2.07617 11.8477 2.02148L8.02734-0.826172 4.20703 2.02148C4.13281 2.07617 4.04883 2.10352 3.95508 2.10352 3.83789 2.10352 3.73828 2.0625 3.65625 1.98047 3.57422 1.89844 3.5332 1.79883 3.5332 1.68164 3.5332 1.64648 3.55566 1.55371 3.60059 1.40332 3.64551 1.25293 3.70312 1.07129 3.77344 0.858398 3.84375 0.645508 3.9209 0.415039 4.00488 0.166992 4.08887-0.0810547 4.16895-0.317383 4.24512-0.541992 4.32129-0.766602 4.39062-0.967773 4.45312-1.14551 4.51562-1.32324 4.55859-1.44922 4.58203-1.52344L3.02344-0.744141C2.875-0.669922 2.71875-0.632812 2.55469-0.632812 2.41406-0.632812 2.28027-0.660156 2.15332-0.714844 2.02637-0.769531 1.91406-0.84375 1.81641-0.9375 1.71875-1.03125 1.6416-1.1416 1.58496-1.26855 1.52832-1.39551 1.5-1.5293 1.5-1.66992 1.5-1.88086 1.5498-2.06934 1.64941-2.23535 1.74902-2.40137 1.89258-2.53125 2.08008-2.625L4.18945-3.67969 1.66992-5.56055C1.55664-5.64258 1.5-5.75391 1.5-5.89453 1.5-6.01172 1.54102-6.11133 1.62305-6.19336 1.70508-6.27539 1.80469-6.31641 1.92188-6.31641L4.64062-6.31641 3.49219-7.4707C3.39453-7.56836 3.31836-7.68262 3.26367-7.81348 3.20898-7.94434 3.18164-8.07812 3.18164-8.21484 3.18164-8.35938 3.20996-8.49512 3.2666-8.62207 3.32324-8.74902 3.39941-8.86035 3.49512-8.95605 3.59082-9.05176 3.70215-9.12695 3.8291-9.18164 3.95605-9.23633 4.0918-9.26367 4.23633-9.26367 4.37695-9.26367 4.51074-9.23828 4.6377-9.1875 4.76465-9.13672 4.87891-9.06055 4.98047-8.95898L6.53906-7.40039 7.62891-10.6641C7.66016-10.75 7.71191-10.8193 7.78418-10.8721 7.85644-10.9248 7.9375-10.9512 8.02734-10.9512 8.11719-10.9512 8.19824-10.9248 8.27051-10.8721 8.34277-10.8193 8.39453-10.75 8.42578-10.6641L9.51562-7.40039 11.0742-8.95898C11.1758-9.06055 11.29-9.13672 11.417-9.1875 11.5439-9.23828 11.6777-9.26367 11.8184-9.26367 11.9629-9.26367 12.0986-9.23633 12.2256-9.18164 12.3525-9.12695 12.4639-9.05176 12.5596-8.95605 12.6553-8.86035 12.7314-8.74902 12.7881-8.62207 12.8447-8.49512 12.873-8.35938 12.873-8.21484 12.873-8.07812 12.8457-7.94434 12.791-7.81348 12.7363-7.68262 12.6602-7.56836 12.5625-7.4707L11.4141-6.31641 14.1328-6.31641C14.25-6.31641 14.3496-6.27539 14.4316-6.19336 14.5137-6.11133 14.5547-6.01172 14.5547-5.89453 14.5547-5.75391 14.498-5.64258 14.3848-5.56055Z" transform="translate(552.273 504)"/><path d="M13.5-1.47656C13.4844-1.47656 13.4248-1.5 13.3213-1.54688 13.2178-1.59375 13.0898-1.65332 12.9375-1.72559 12.7852-1.79785 12.6201-1.87793 12.4424-1.96582 12.2646-2.05371 12.0967-2.1377 11.9385-2.21777 11.7803-2.29785 11.6426-2.36816 11.5254-2.42871 11.4082-2.48926 11.334-2.5293 11.3027-2.54883 11.2637-2.57617 11.2344-2.60156 11.2148-2.625 11.1953-2.64844 11.1855-2.68555 11.1855-2.73633 11.1855-2.79492 11.207-2.84473 11.25-2.88574 11.293-2.92676 11.3438-2.94727 11.4023-2.94727 11.4141-2.94727 11.4736-2.92383 11.5811-2.87695 11.6885-2.83008 11.8184-2.76953 11.9707-2.69531 12.123-2.62109 12.2881-2.54102 12.4658-2.45508 12.6436-2.36914 12.8115-2.28613 12.9697-2.20605 13.1279-2.12598 13.2646-2.05566 13.3799-1.99512 13.4951-1.93457 13.5664-1.89453 13.5938-1.875 13.6328-1.84766 13.6621-1.82129 13.6816-1.7959 13.7012-1.77051 13.7109-1.73242 13.7109-1.68164 13.7109-1.62695 13.6895-1.5791 13.6465-1.53809 13.6035-1.49707 13.5547-1.47656 13.5-1.47656ZM2.55469-1.47656C2.5-1.47656 2.45117-1.49707 2.4082-1.53809 2.36523-1.5791 2.34375-1.62695 2.34375-1.68164 2.34375-1.73242 2.35352-1.77051 2.37305-1.7959 2.39258-1.82129 2.42188-1.84766 2.46094-1.875 2.48828-1.89453 2.55957-1.93457 2.6748-1.99512 2.79004-2.05566 2.92578-2.12598 3.08203-2.20605 3.23828-2.28613 3.40527-2.36914 3.58301-2.45508 3.76074-2.54102 3.92676-2.62109 4.08105-2.69531 4.23535-2.76953 4.36523-2.83008 4.4707-2.87695 4.57617-2.92383 4.63672-2.94727 4.65234-2.94727 4.71094-2.94727 4.76172-2.92676 4.80469-2.88574 4.84766-2.84473 4.86914-2.79492 4.86914-2.73633 4.86914-2.68555 4.85938-2.64844 4.83984-2.625 4.82031-2.60156 4.79102-2.57617 4.75195-2.54883 4.7207-2.5293 4.64648-2.48926 4.5293-2.42871 4.41211-2.36816 4.27441-2.29785 4.11621-2.21777 3.95801-2.1377 3.79004-2.05371 3.6123-1.96582 3.43457-1.87793 3.26953-1.79785 3.11719-1.72559 2.96484-1.65332 2.83594-1.59375 2.73047-1.54688 2.625-1.5 2.56641-1.47656 2.55469-1.47656ZM5.92383-6.31641C5.86523-6.31641 5.81445-6.33789 5.77148-6.38086L4.08984-8.0625C4.04688-8.10547 4.02539-8.1543 4.02539-8.20898 4.02539-8.26367 4.04688-8.3125 4.08984-8.35547 4.13281-8.39844 4.18164-8.41992 4.23633-8.41992 4.29883-8.41992 4.34961-8.40039 4.38867-8.36133L6.07031-6.67969C6.10937-6.64062 6.12891-6.58984 6.12891-6.52734 6.12891-6.47266 6.1084-6.42383 6.06738-6.38086 6.02637-6.33789 5.97852-6.31641 5.92383-6.31641ZM10.1309-6.31641C10.0762-6.31641 10.0273-6.33789 9.98438-6.38086 9.94141-6.42383 9.91992-6.47266 9.91992-6.52734 9.91992-6.58594 9.94141-6.63672 9.98438-6.67969L11.666-8.36133C11.7051-8.40039 11.7559-8.41992 11.8184-8.41992 11.873-8.41992 11.9209-8.39844 11.9619-8.35547 12.0029-8.3125 12.0234-8.26367 12.0234-8.20898 12.0234-8.15039 12.0039-8.10156 11.9648-8.0625L10.2832-6.38086C10.2402-6.33789 10.1895-6.31641 10.1309-6.31641Z" fill="#00BCF2" transform="translate(552.273 504)"/><path d="M8.02734-1.76953C7.93359-1.76953 7.84961-1.74219 7.77539-1.6875L4.78125 0.544922 5.97656-3.04102C5.99219-3.08398 6-3.12891 6-3.17578 6-3.31641 5.94336-3.42773 5.83008-3.50977L3.19336-5.47852 6.48047-5.47852C6.57031-5.47852 6.65234-5.50391 6.72656-5.55469 6.80078-5.60547 6.85352-5.67578 6.88477-5.76562L8.02734-9.19922 9.16992-5.76562C9.20117-5.67578 9.25391-5.60547 9.32812-5.55469 9.40234-5.50391 9.48438-5.47852 9.57422-5.47852L12.8613-5.47852 10.2246-3.50977C10.1113-3.42773 10.0547-3.31641 10.0547-3.17578 10.0547-3.12891 10.0625-3.08398 10.0781-3.04102L11.2734 0.544922 8.2793-1.6875C8.20508-1.74219 8.12109-1.76953 8.02734-1.76953Z" fill="#FCE100" transform="translate(552.273 504)"/></g><g clip-path="url(#clip67)"><text fill="#595959" font-family="DengXian,DengXian_MSFontService,sans-serif" font-weight="400" font-size="12" transform="translate(568.333 504)">政治</text></g><g clip-path="url(#clip68)"><rect x="606" y="497" width="7" height="7" fill="url(#fill69)"/></g><g clip-path="url(#clip70)"><path d="" fill="#595959" transform="translate(615.683 504)"/><path d="M11.8652-3.67969 13.9746-2.625C14.1621-2.53125 14.3057-2.40137 14.4053-2.23535 14.5049-2.06934 14.5547-1.88086 14.5547-1.66992 14.5547-1.5293 14.5264-1.39551 14.4697-1.26855 14.4131-1.1416 14.3359-1.03125 14.2383-0.9375 14.1406-0.84375 14.0283-0.769531 13.9014-0.714844 13.7744-0.660156 13.6406-0.632812 13.5-0.632812 13.3359-0.632812 13.1797-0.669922 13.0312-0.744141L11.4727-1.52344C11.4961-1.44922 11.5391-1.32324 11.6016-1.14551 11.6641-0.967773 11.7334-0.766602 11.8096-0.541992 11.8857-0.317383 11.9658-0.0810547 12.0498 0.166992 12.1338 0.415039 12.2109 0.645508 12.2812 0.858398 12.3516 1.07129 12.4092 1.25293 12.4541 1.40332 12.499 1.55371 12.5215 1.64648 12.5215 1.68164 12.5215 1.79883 12.4805 1.89844 12.3984 1.98047 12.3164 2.0625 12.2168 2.10352 12.0996 2.10352 12.0059 2.10352 11.9219 2.07617 11.8477 2.02148L8.02734-0.826172 4.20703 2.02148C4.13281 2.07617 4.04883 2.10352 3.95508 2.10352 3.83789 2.10352 3.73828 2.0625 3.65625 1.98047 3.57422 1.89844 3.5332 1.79883 3.5332 1.68164 3.5332 1.64648 3.55566 1.55371 3.60059 1.40332 3.64551 1.25293 3.70312 1.07129 3.77344 0.858398 3.84375 0.645508 3.9209 0.415039 4.00488 0.166992 4.08887-0.0810547 4.16895-0.317383 4.24512-0.541992 4.32129-0.766602 4.39062-0.967773 4.45312-1.14551 4.51562-1.32324 4.55859-1.44922 4.58203-1.52344L3.02344-0.744141C2.875-0.669922 2.71875-0.632812 2.55469-0.632812 2.41406-0.632812 2.28027-0.660156 2.15332-0.714844 2.02637-0.769531 1.91406-0.84375 1.81641-0.9375 1.71875-1.03125 1.6416-1.1416 1.58496-1.26855 1.52832-1.39551 1.5-1.5293 1.5-1.66992 1.5-1.88086 1.5498-2.06934 1.64941-2.23535 1.74902-2.40137 1.89258-2.53125 2.08008-2.625L4.18945-3.67969 1.66992-5.56055C1.55664-5.64258 1.5-5.75391 1.5-5.89453 1.5-6.01172 1.54102-6.11133 1.62305-6.19336 1.70508-6.27539 1.80469-6.31641 1.92188-6.31641L4.64062-6.31641 3.49219-7.4707C3.39453-7.56836 3.31836-7.68262 3.26367-7.81348 3.20898-7.94434 3.18164-8.07812 3.18164-8.21484 3.18164-8.35938 3.20996-8.49512 3.2666-8.62207 3.32324-8.74902 3.39941-8.86035 3.49512-8.95605 3.59082-9.05176 3.70215-9.12695 3.8291-9.18164 3.95605-9.23633 4.0918-9.26367 4.23633-9.26367 4.37695-9.26367 4.51074-9.23828 4.6377-9.1875 4.76465-9.13672 4.87891-9.06055 4.98047-8.95898L6.53906-7.40039 7.62891-10.6641C7.66016-10.75 7.71191-10.8193 7.78418-10.8721 7.85644-10.9248 7.9375-10.9512 8.02734-10.9512 8.11719-10.9512 8.19824-10.9248 8.27051-10.8721 8.34277-10.8193 8.39453-10.75 8.42578-10.6641L9.51562-7.40039 11.0742-8.95898C11.1758-9.06055 11.29-9.13672 11.417-9.1875 11.5439-9.23828 11.6777-9.26367 11.8184-9.26367 11.9629-9.26367 12.0986-9.23633 12.2256-9.18164 12.3525-9.12695 12.4639-9.05176 12.5596-8.95605 12.6553-8.86035 12.7314-8.74902 12.7881-8.62207 12.8447-8.49512 12.873-8.35938 12.873-8.21484 12.873-8.07812 12.8457-7.94434 12.791-7.81348 12.7363-7.68262 12.6602-7.56836 12.5625-7.4707L11.4141-6.31641 14.1328-6.31641C14.25-6.31641 14.3496-6.27539 14.4316-6.19336 14.5137-6.11133 14.5547-6.01172 14.5547-5.89453 14.5547-5.75391 14.498-5.64258 14.3848-5.56055Z" transform="translate(615.683 504)"/><path d="M13.5-1.47656C13.4844-1.47656 13.4248-1.5 13.3213-1.54688 13.2178-1.59375 13.0898-1.65332 12.9375-1.72559 12.7852-1.79785 12.6201-1.87793 12.4424-1.96582 12.2646-2.05371 12.0967-2.1377 11.9385-2.21777 11.7803-2.29785 11.6426-2.36816 11.5254-2.42871 11.4082-2.48926 11.334-2.5293 11.3027-2.54883 11.2637-2.57617 11.2344-2.60156 11.2148-2.625 11.1953-2.64844 11.1855-2.68555 11.1855-2.73633 11.1855-2.79492 11.207-2.84473 11.25-2.88574 11.293-2.92676 11.3438-2.94727 11.4023-2.94727 11.4141-2.94727 11.4736-2.92383 11.5811-2.87695 11.6885-2.83008 11.8184-2.76953 11.9707-2.69531 12.123-2.62109 12.2881-2.54102 12.4658-2.45508 12.6436-2.36914 12.8115-2.28613 12.9697-2.20605 13.1279-2.12598 13.2646-2.05566 13.3799-1.99512 13.4951-1.93457 13.5664-1.89453 13.5938-1.875 13.6328-1.84766 13.6621-1.82129 13.6816-1.7959 13.7012-1.77051 13.7109-1.73242 13.7109-1.68164 13.7109-1.62695 13.6895-1.5791 13.6465-1.53809 13.6035-1.49707 13.5547-1.47656 13.5-1.47656ZM2.55469-1.47656C2.5-1.47656 2.45117-1.49707 2.4082-1.53809 2.36523-1.5791 2.34375-1.62695 2.34375-1.68164 2.34375-1.73242 2.35352-1.77051 2.37305-1.7959 2.39258-1.82129 2.42188-1.84766 2.46094-1.875 2.48828-1.89453 2.55957-1.93457 2.6748-1.99512 2.79004-2.05566 2.92578-2.12598 3.08203-2.20605 3.23828-2.28613 3.40527-2.36914 3.58301-2.45508 3.76074-2.54102 3.92676-2.62109 4.08105-2.69531 4.23535-2.76953 4.36523-2.83008 4.4707-2.87695 4.57617-2.92383 4.63672-2.94727 4.65234-2.94727 4.71094-2.94727 4.76172-2.92676 4.80469-2.88574 4.84766-2.84473 4.86914-2.79492 4.86914-2.73633 4.86914-2.68555 4.85938-2.64844 4.83984-2.625 4.82031-2.60156 4.79102-2.57617 4.75195-2.54883 4.7207-2.5293 4.64648-2.48926 4.5293-2.42871 4.41211-2.36816 4.27441-2.29785 4.11621-2.21777 3.95801-2.1377 3.79004-2.05371 3.6123-1.96582 3.43457-1.87793 3.26953-1.79785 3.11719-1.72559 2.96484-1.65332 2.83594-1.59375 2.73047-1.54688 2.625-1.5 2.56641-1.47656 2.55469-1.47656ZM5.92383-6.31641C5.86523-6.31641 5.81445-6.33789 5.77148-6.38086L4.08984-8.0625C4.04688-8.10547 4.02539-8.1543 4.02539-8.20898 4.02539-8.26367 4.04688-8.3125 4.08984-8.35547 4.13281-8.39844 4.18164-8.41992 4.23633-8.41992 4.29883-8.41992 4.34961-8.40039 4.38867-8.36133L6.07031-6.67969C6.10937-6.64062 6.12891-6.58984 6.12891-6.52734 6.12891-6.47266 6.1084-6.42383 6.06738-6.38086 6.02637-6.33789 5.97852-6.31641 5.92383-6.31641ZM10.1309-6.31641C10.0762-6.31641 10.0273-6.33789 9.98438-6.38086 9.94141-6.42383 9.91992-6.47266 9.91992-6.52734 9.91992-6.58594 9.94141-6.63672 9.98438-6.67969L11.666-8.36133C11.7051-8.40039 11.7559-8.41992 11.8184-8.41992 11.873-8.41992 11.9209-8.39844 11.9619-8.35547 12.0029-8.3125 12.0234-8.26367 12.0234-8.20898 12.0234-8.15039 12.0039-8.10156 11.9648-8.0625L10.2832-6.38086C10.2402-6.33789 10.1895-6.31641 10.1309-6.31641Z" fill="#00BCF2" transform="translate(615.683 504)"/><path d="M8.02734-1.76953C7.93359-1.76953 7.84961-1.74219 7.77539-1.6875L4.78125 0.544922 5.97656-3.04102C5.99219-3.08398 6-3.12891 6-3.17578 6-3.31641 5.94336-3.42773 5.83008-3.50977L3.19336-5.47852 6.48047-5.47852C6.57031-5.47852 6.65234-5.50391 6.72656-5.55469 6.80078-5.60547 6.85352-5.67578 6.88477-5.76562L8.02734-9.19922 9.16992-5.76562C9.20117-5.67578 9.25391-5.60547 9.32812-5.55469 9.40234-5.50391 9.48438-5.47852 9.57422-5.47852L12.8613-5.47852 10.2246-3.50977C10.1113-3.42773 10.0547-3.31641 10.0547-3.17578 10.0547-3.12891 10.0625-3.08398 10.0781-3.04102L11.2734 0.544922 8.2793-1.6875C8.20508-1.74219 8.12109-1.76953 8.02734-1.76953Z" fill="#FCE100" transform="translate(615.683 504)"/></g><g clip-path="url(#clip71)"><text fill="#595959" font-family="DengXian,DengXian_MSFontService,sans-serif" font-weight="400" font-size="12" transform="translate(631.743 504)">英语</text></g><g clip-path="url(#clip72)"><rect x="670" y="497" width="6" height="7" fill="url(#fill73)"/></g><g clip-path="url(#clip74)"><path d="" fill="#595959" transform="translate(679.093 504)"/><path d="M11.8652-3.67969 13.9746-2.625C14.1621-2.53125 14.3057-2.40137 14.4053-2.23535 14.5049-2.06934 14.5547-1.88086 14.5547-1.66992 14.5547-1.5293 14.5264-1.39551 14.4697-1.26855 14.4131-1.1416 14.3359-1.03125 14.2383-0.9375 14.1406-0.84375 14.0283-0.769531 13.9014-0.714844 13.7744-0.660156 13.6406-0.632812 13.5-0.632812 13.3359-0.632812 13.1797-0.669922 13.0312-0.744141L11.4727-1.52344C11.4961-1.44922 11.5391-1.32324 11.6016-1.14551 11.6641-0.967773 11.7334-0.766602 11.8096-0.541992 11.8857-0.317383 11.9658-0.0810547 12.0498 0.166992 12.1338 0.415039 12.2109 0.645508 12.2812 0.858398 12.3516 1.07129 12.4092 1.25293 12.4541 1.40332 12.499 1.55371 12.5215 1.64648 12.5215 1.68164 12.5215 1.79883 12.4805 1.89844 12.3984 1.98047 12.3164 2.0625 12.2168 2.10352 12.0996 2.10352 12.0059 2.10352 11.9219 2.07617 11.8477 2.02148L8.02734-0.826172 4.20703 2.02148C4.13281 2.07617 4.04883 2.10352 3.95508 2.10352 3.83789 2.10352 3.73828 2.0625 3.65625 1.98047 3.57422 1.89844 3.5332 1.79883 3.5332 1.68164 3.5332 1.64648 3.55566 1.55371 3.60059 1.40332 3.64551 1.25293 3.70312 1.07129 3.77344 0.858398 3.84375 0.645508 3.9209 0.415039 4.00488 0.166992 4.08887-0.0810547 4.16895-0.317383 4.24512-0.541992 4.32129-0.766602 4.39062-0.967773 4.45312-1.14551 4.51562-1.32324 4.55859-1.44922 4.58203-1.52344L3.02344-0.744141C2.875-0.669922 2.71875-0.632812 2.55469-0.632812 2.41406-0.632812 2.28027-0.660156 2.15332-0.714844 2.02637-0.769531 1.91406-0.84375 1.81641-0.9375 1.71875-1.03125 1.6416-1.1416 1.58496-1.26855 1.52832-1.39551 1.5-1.5293 1.5-1.66992 1.5-1.88086 1.5498-2.06934 1.64941-2.23535 1.74902-2.40137 1.89258-2.53125 2.08008-2.625L4.18945-3.67969 1.66992-5.56055C1.55664-5.64258 1.5-5.75391 1.5-5.89453 1.5-6.01172 1.54102-6.11133 1.62305-6.19336 1.70508-6.27539 1.80469-6.31641 1.92188-6.31641L4.64062-6.31641 3.49219-7.4707C3.39453-7.56836 3.31836-7.68262 3.26367-7.81348 3.20898-7.94434 3.18164-8.07812 3.18164-8.21484 3.18164-8.35938 3.20996-8.49512 3.2666-8.62207 3.32324-8.74902 3.39941-8.86035 3.49512-8.95605 3.59082-9.05176 3.70215-9.12695 3.8291-9.18164 3.95605-9.23633 4.0918-9.26367 4.23633-9.26367 4.37695-9.26367 4.51074-9.23828 4.6377-9.1875 4.76465-9.13672 4.87891-9.06055 4.98047-8.95898L6.53906-7.40039 7.62891-10.6641C7.66016-10.75 7.71191-10.8193 7.78418-10.8721 7.85644-10.9248 7.9375-10.9512 8.02734-10.9512 8.11719-10.9512 8.19824-10.9248 8.27051-10.8721 8.34277-10.8193 8.39453-10.75 8.42578-10.6641L9.51562-7.40039 11.0742-8.95898C11.1758-9.06055 11.29-9.13672 11.417-9.1875 11.5439-9.23828 11.6777-9.26367 11.8184-9.26367 11.9629-9.26367 12.0986-9.23633 12.2256-9.18164 12.3525-9.12695 12.4639-9.05176 12.5596-8.95605 12.6553-8.86035 12.7314-8.74902 12.7881-8.62207 12.8447-8.49512 12.873-8.35938 12.873-8.21484 12.873-8.07812 12.8457-7.94434 12.791-7.81348 12.7363-7.68262 12.6602-7.56836 12.5625-7.4707L11.4141-6.31641 14.1328-6.31641C14.25-6.31641 14.3496-6.27539 14.4316-6.19336 14.5137-6.11133 14.5547-6.01172 14.5547-5.89453 14.5547-5.75391 14.498-5.64258 14.3848-5.56055Z" transform="translate(679.093 504)"/><path d="M13.5-1.47656C13.4844-1.47656 13.4248-1.5 13.3213-1.54688 13.2178-1.59375 13.0898-1.65332 12.9375-1.72559 12.7852-1.79785 12.6201-1.87793 12.4424-1.96582 12.2646-2.05371 12.0967-2.1377 11.9385-2.21777 11.7803-2.29785 11.6426-2.36816 11.5254-2.42871 11.4082-2.48926 11.334-2.5293 11.3027-2.54883 11.2637-2.57617 11.2344-2.60156 11.2148-2.625 11.1953-2.64844 11.1855-2.68555 11.1855-2.73633 11.1855-2.79492 11.207-2.84473 11.25-2.88574 11.293-2.92676 11.3438-2.94727 11.4023-2.94727 11.4141-2.94727 11.4736-2.92383 11.5811-2.87695 11.6885-2.83008 11.8184-2.76953 11.9707-2.69531 12.123-2.62109 12.2881-2.54102 12.4658-2.45508 12.6436-2.36914 12.8115-2.28613 12.9697-2.20605 13.1279-2.12598 13.2646-2.05566 13.3799-1.99512 13.4951-1.93457 13.5664-1.89453 13.5938-1.875 13.6328-1.84766 13.6621-1.82129 13.6816-1.7959 13.7012-1.77051 13.7109-1.73242 13.7109-1.68164 13.7109-1.62695 13.6895-1.5791 13.6465-1.53809 13.6035-1.49707 13.5547-1.47656 13.5-1.47656ZM2.55469-1.47656C2.5-1.47656 2.45117-1.49707 2.4082-1.53809 2.36523-1.5791 2.34375-1.62695 2.34375-1.68164 2.34375-1.73242 2.35352-1.77051 2.37305-1.7959 2.39258-1.82129 2.42188-1.84766 2.46094-1.875 2.48828-1.89453 2.55957-1.93457 2.6748-1.99512 2.79004-2.05566 2.92578-2.12598 3.08203-2.20605 3.23828-2.28613 3.40527-2.36914 3.58301-2.45508 3.76074-2.54102 3.92676-2.62109 4.08105-2.69531 4.23535-2.76953 4.36523-2.83008 4.4707-2.87695 4.57617-2.92383 4.63672-2.94727 4.65234-2.94727 4.71094-2.94727 4.76172-2.92676 4.80469-2.88574 4.84766-2.84473 4.86914-2.79492 4.86914-2.73633 4.86914-2.68555 4.85938-2.64844 4.83984-2.625 4.82031-2.60156 4.79102-2.57617 4.75195-2.54883 4.7207-2.5293 4.64648-2.48926 4.5293-2.42871 4.41211-2.36816 4.27441-2.29785 4.11621-2.21777 3.95801-2.1377 3.79004-2.05371 3.6123-1.96582 3.43457-1.87793 3.26953-1.79785 3.11719-1.72559 2.96484-1.65332 2.83594-1.59375 2.73047-1.54688 2.625-1.5 2.56641-1.47656 2.55469-1.47656ZM5.92383-6.31641C5.86523-6.31641 5.81445-6.33789 5.77148-6.38086L4.08984-8.0625C4.04688-8.10547 4.02539-8.1543 4.02539-8.20898 4.02539-8.26367 4.04688-8.3125 4.08984-8.35547 4.13281-8.39844 4.18164-8.41992 4.23633-8.41992 4.29883-8.41992 4.34961-8.40039 4.38867-8.36133L6.07031-6.67969C6.10937-6.64062 6.12891-6.58984 6.12891-6.52734 6.12891-6.47266 6.1084-6.42383 6.06738-6.38086 6.02637-6.33789 5.97852-6.31641 5.92383-6.31641ZM10.1309-6.31641C10.0762-6.31641 10.0273-6.33789 9.98438-6.38086 9.94141-6.42383 9.91992-6.47266 9.91992-6.52734 9.91992-6.58594 9.94141-6.63672 9.98438-6.67969L11.666-8.36133C11.7051-8.40039 11.7559-8.41992 11.8184-8.41992 11.873-8.41992 11.9209-8.39844 11.9619-8.35547 12.0029-8.3125 12.0234-8.26367 12.0234-8.20898 12.0234-8.15039 12.0039-8.10156 11.9648-8.0625L10.2832-6.38086C10.2402-6.33789 10.1895-6.31641 10.1309-6.31641Z" fill="#00BCF2" transform="translate(679.093 504)"/><path d="M8.02734-1.76953C7.93359-1.76953 7.84961-1.74219 7.77539-1.6875L4.78125 0.544922 5.97656-3.04102C5.99219-3.08398 6-3.12891 6-3.17578 6-3.31641 5.94336-3.42773 5.83008-3.50977L3.19336-5.47852 6.48047-5.47852C6.57031-5.47852 6.65234-5.50391 6.72656-5.55469 6.80078-5.60547 6.85352-5.67578 6.88477-5.76562L8.02734-9.19922 9.16992-5.76562C9.20117-5.67578 9.25391-5.60547 9.32812-5.55469 9.40234-5.50391 9.48438-5.47852 9.57422-5.47852L12.8613-5.47852 10.2246-3.50977C10.1113-3.42773 10.0547-3.31641 10.0547-3.17578 10.0547-3.12891 10.0625-3.08398 10.0781-3.04102L11.2734 0.544922 8.2793-1.6875C8.20508-1.74219 8.12109-1.76953 8.02734-1.76953Z" fill="#FCE100" transform="translate(679.093 504)"/></g><g clip-path="url(#clip75)"><text fill="#595959" font-family="DengXian,DengXian_MSFontService,sans-serif" font-weight="400" font-size="12" transform="translate(695.153 504)">学习</text></g><g clip-path="url(#clip76)"><rect x="733" y="497" width="7" height="7" fill="url(#fill77)"/></g><g clip-path="url(#clip78)"><path d="" fill="#595959" transform="translate(742.502 504)"/><path d="M11.8652-3.67969 13.9746-2.625C14.1621-2.53125 14.3057-2.40137 14.4053-2.23535 14.5049-2.06934 14.5547-1.88086 14.5547-1.66992 14.5547-1.5293 14.5264-1.39551 14.4697-1.26855 14.4131-1.1416 14.3359-1.03125 14.2383-0.9375 14.1406-0.84375 14.0283-0.769531 13.9014-0.714844 13.7744-0.660156 13.6406-0.632812 13.5-0.632812 13.3359-0.632812 13.1797-0.669922 13.0312-0.744141L11.4727-1.52344C11.4961-1.44922 11.5391-1.32324 11.6016-1.14551 11.6641-0.967773 11.7334-0.766602 11.8096-0.541992 11.8857-0.317383 11.9658-0.0810547 12.0498 0.166992 12.1338 0.415039 12.2109 0.645508 12.2812 0.858398 12.3516 1.07129 12.4092 1.25293 12.4541 1.40332 12.499 1.55371 12.5215 1.64648 12.5215 1.68164 12.5215 1.79883 12.4805 1.89844 12.3984 1.98047 12.3164 2.0625 12.2168 2.10352 12.0996 2.10352 12.0059 2.10352 11.9219 2.07617 11.8477 2.02148L8.02734-0.826172 4.20703 2.02148C4.13281 2.07617 4.04883 2.10352 3.95508 2.10352 3.83789 2.10352 3.73828 2.0625 3.65625 1.98047 3.57422 1.89844 3.5332 1.79883 3.5332 1.68164 3.5332 1.64648 3.55566 1.55371 3.60059 1.40332 3.64551 1.25293 3.70312 1.07129 3.77344 0.858398 3.84375 0.645508 3.9209 0.415039 4.00488 0.166992 4.08887-0.0810547 4.16895-0.317383 4.24512-0.541992 4.32129-0.766602 4.39062-0.967773 4.45312-1.14551 4.51562-1.32324 4.55859-1.44922 4.58203-1.52344L3.02344-0.744141C2.875-0.669922 2.71875-0.632812 2.55469-0.632812 2.41406-0.632812 2.28027-0.660156 2.15332-0.714844 2.02637-0.769531 1.91406-0.84375 1.81641-0.9375 1.71875-1.03125 1.6416-1.1416 1.58496-1.26855 1.52832-1.39551 1.5-1.5293 1.5-1.66992 1.5-1.88086 1.5498-2.06934 1.64941-2.23535 1.74902-2.40137 1.89258-2.53125 2.08008-2.625L4.18945-3.67969 1.66992-5.56055C1.55664-5.64258 1.5-5.75391 1.5-5.89453 1.5-6.01172 1.54102-6.11133 1.62305-6.19336 1.70508-6.27539 1.80469-6.31641 1.92188-6.31641L4.64062-6.31641 3.49219-7.4707C3.39453-7.56836 3.31836-7.68262 3.26367-7.81348 3.20898-7.94434 3.18164-8.07812 3.18164-8.21484 3.18164-8.35938 3.20996-8.49512 3.2666-8.62207 3.32324-8.74902 3.39941-8.86035 3.49512-8.95605 3.59082-9.05176 3.70215-9.12695 3.8291-9.18164 3.95605-9.23633 4.0918-9.26367 4.23633-9.26367 4.37695-9.26367 4.51074-9.23828 4.6377-9.1875 4.76465-9.13672 4.87891-9.06055 4.98047-8.95898L6.53906-7.40039 7.62891-10.6641C7.66016-10.75 7.71191-10.8193 7.78418-10.8721 7.85644-10.9248 7.9375-10.9512 8.02734-10.9512 8.11719-10.9512 8.19824-10.9248 8.27051-10.8721 8.34277-10.8193 8.39453-10.75 8.42578-10.6641L9.51562-7.40039 11.0742-8.95898C11.1758-9.06055 11.29-9.13672 11.417-9.1875 11.5439-9.23828 11.6777-9.26367 11.8184-9.26367 11.9629-9.26367 12.0986-9.23633 12.2256-9.18164 12.3525-9.12695 12.4639-9.05176 12.5596-8.95605 12.6553-8.86035 12.7314-8.74902 12.7881-8.62207 12.8447-8.49512 12.873-8.35938 12.873-8.21484 12.873-8.07812 12.8457-7.94434 12.791-7.81348 12.7363-7.68262 12.6602-7.56836 12.5625-7.4707L11.4141-6.31641 14.1328-6.31641C14.25-6.31641 14.3496-6.27539 14.4316-6.19336 14.5137-6.11133 14.5547-6.01172 14.5547-5.89453 14.5547-5.75391 14.498-5.64258 14.3848-5.56055Z" transform="translate(742.502 504)"/><path d="M13.5-1.47656C13.4844-1.47656 13.4248-1.5 13.3213-1.54688 13.2178-1.59375 13.0898-1.65332 12.9375-1.72559 12.7852-1.79785 12.6201-1.87793 12.4424-1.96582 12.2646-2.05371 12.0967-2.1377 11.9385-2.21777 11.7803-2.29785 11.6426-2.36816 11.5254-2.42871 11.4082-2.48926 11.334-2.5293 11.3027-2.54883 11.2637-2.57617 11.2344-2.60156 11.2148-2.625 11.1953-2.64844 11.1855-2.68555 11.1855-2.73633 11.1855-2.79492 11.207-2.84473 11.25-2.88574 11.293-2.92676 11.3438-2.94727 11.4023-2.94727 11.4141-2.94727 11.4736-2.92383 11.5811-2.87695 11.6885-2.83008 11.8184-2.76953 11.9707-2.69531 12.123-2.62109 12.2881-2.54102 12.4658-2.45508 12.6436-2.36914 12.8115-2.28613 12.9697-2.20605 13.1279-2.12598 13.2646-2.05566 13.3799-1.99512 13.4951-1.93457 13.5664-1.89453 13.5938-1.875 13.6328-1.84766 13.6621-1.82129 13.6816-1.7959 13.7012-1.77051 13.7109-1.73242 13.7109-1.68164 13.7109-1.62695 13.6895-1.5791 13.6465-1.53809 13.6035-1.49707 13.5547-1.47656 13.5-1.47656ZM2.55469-1.47656C2.5-1.47656 2.45117-1.49707 2.4082-1.53809 2.36523-1.5791 2.34375-1.62695 2.34375-1.68164 2.34375-1.73242 2.35352-1.77051 2.37305-1.7959 2.39258-1.82129 2.42188-1.84766 2.46094-1.875 2.48828-1.89453 2.55957-1.93457 2.6748-1.99512 2.79004-2.05566 2.92578-2.12598 3.08203-2.20605 3.23828-2.28613 3.40527-2.36914 3.58301-2.45508 3.76074-2.54102 3.92676-2.62109 4.08105-2.69531 4.23535-2.76953 4.36523-2.83008 4.4707-2.87695 4.57617-2.92383 4.63672-2.94727 4.65234-2.94727 4.71094-2.94727 4.76172-2.92676 4.80469-2.88574 4.84766-2.84473 4.86914-2.79492 4.86914-2.73633 4.86914-2.68555 4.85938-2.64844 4.83984-2.625 4.82031-2.60156 4.79102-2.57617 4.75195-2.54883 4.7207-2.5293 4.64648-2.48926 4.5293-2.42871 4.41211-2.36816 4.27441-2.29785 4.11621-2.21777 3.95801-2.1377 3.79004-2.05371 3.6123-1.96582 3.43457-1.87793 3.26953-1.79785 3.11719-1.72559 2.96484-1.65332 2.83594-1.59375 2.73047-1.54688 2.625-1.5 2.56641-1.47656 2.55469-1.47656ZM5.92383-6.31641C5.86523-6.31641 5.81445-6.33789 5.77148-6.38086L4.08984-8.0625C4.04688-8.10547 4.02539-8.1543 4.02539-8.20898 4.02539-8.26367 4.04688-8.3125 4.08984-8.35547 4.13281-8.39844 4.18164-8.41992 4.23633-8.41992 4.29883-8.41992 4.34961-8.40039 4.38867-8.36133L6.07031-6.67969C6.10937-6.64062 6.12891-6.58984 6.12891-6.52734 6.12891-6.47266 6.1084-6.42383 6.06738-6.38086 6.02637-6.33789 5.97852-6.31641 5.92383-6.31641ZM10.1309-6.31641C10.0762-6.31641 10.0273-6.33789 9.98438-6.38086 9.94141-6.42383 9.91992-6.47266 9.91992-6.52734 9.91992-6.58594 9.94141-6.63672 9.98438-6.67969L11.666-8.36133C11.7051-8.40039 11.7559-8.41992 11.8184-8.41992 11.873-8.41992 11.9209-8.39844 11.9619-8.35547 12.0029-8.3125 12.0234-8.26367 12.0234-8.20898 12.0234-8.15039 12.0039-8.10156 11.9648-8.0625L10.2832-6.38086C10.2402-6.33789 10.1895-6.31641 10.1309-6.31641Z" fill="#00BCF2" transform="translate(742.502 504)"/><path d="M8.02734-1.76953C7.93359-1.76953 7.84961-1.74219 7.77539-1.6875L4.78125 0.544922 5.97656-3.04102C5.99219-3.08398 6-3.12891 6-3.17578 6-3.31641 5.94336-3.42773 5.83008-3.50977L3.19336-5.47852 6.48047-5.47852C6.57031-5.47852 6.65234-5.50391 6.72656-5.55469 6.80078-5.60547 6.85352-5.67578 6.88477-5.76562L8.02734-9.19922 9.16992-5.76562C9.20117-5.67578 9.25391-5.60547 9.32812-5.55469 9.40234-5.50391 9.48438-5.47852 9.57422-5.47852L12.8613-5.47852 10.2246-3.50977C10.1113-3.42773 10.0547-3.31641 10.0547-3.17578 10.0547-3.12891 10.0625-3.08398 10.0781-3.04102L11.2734 0.544922 8.2793-1.6875C8.20508-1.74219 8.12109-1.76953 8.02734-1.76953Z" fill="#FCE100" transform="translate(742.502 504)"/></g><g clip-path="url(#clip79)"><text fill="#595959" font-family="DengXian,DengXian_MSFontService,sans-serif" font-weight="400" font-size="12" transform="translate(758.562 504)">数学</text></g></g></svg>